<svg version="1.1" id="Layer_1" xmlns="http://www.w3.org/2000/svg" xmlns:xlink="http://www.w3.org/1999/xlink" x="0px" y="0px"
	 width="100%" viewBox="0 0 64 64" enable-background="new 0 0 64 64" xml:space="preserve">
<path fill="#000000" opacity="1.000000" stroke="none" 
	d="
M1.000000,37.000000 
	C1.000000,25.039907 1.000000,13.079814 1.000000,1.059860 
	C22.222345,1.059860 43.444893,1.059860 65.000000,1.059860 
	C65.000000,11.351854 65.000000,21.707268 64.748337,32.825287 
	C64.030861,33.376247 63.565041,33.164608 62.944534,32.606964 
	C60.263794,28.606331 56.450092,30.430872 53.012894,29.672812 
	C51.921921,27.673960 50.989388,25.999014 50.046501,24.329920 
	C46.056881,17.267521 36.362270,13.321342 29.591093,16.092747 
	C27.165792,16.467213 24.963778,16.543295 23.155254,17.425781 
	C15.903060,20.964561 13.343929,27.678261 11.432818,35.000462 
	C9.690886,35.055664 8.351977,35.111336 6.637395,35.094994 
	C4.507816,35.681988 2.753908,36.340992 1.000000,37.000000 
z"/>
<path fill="#E6F1FF" opacity="1.000000" stroke="none" 
	d="
M49.000000,65.000000 
	C39.312439,65.000000 29.624876,65.000000 19.511696,64.590179 
	C18.614349,60.048161 20.250204,57.812527 24.617479,57.985405 
	C25.271696,58.011303 26.401039,58.076405 26.520367,57.791916 
	C28.825861,52.295292 32.724422,50.868454 38.682980,50.853065 
	C42.130806,50.844162 45.568878,47.056396 49.356682,45.020576 
	C51.147327,45.744427 52.592628,46.416992 54.020851,47.506523 
	C55.715645,54.182182 55.953716,59.964245 49.086319,63.550407 
	C48.865448,63.665745 49.020298,64.500572 49.000000,65.000000 
z"/>
<path fill="#000000" opacity="1.000000" stroke="none" 
	d="
M16.000000,65.000000 
	C11.069985,65.000000 6.139970,65.000000 1.000000,65.000000 
	C1.000000,59.648205 1.000000,54.294556 1.309575,48.169647 
	C4.643448,48.598591 7.581218,50.404972 10.713024,50.852020 
	C15.038666,51.469475 19.510580,51.062199 23.956409,51.522728 
	C24.571980,54.806904 22.973570,55.025471 20.670204,55.053020 
	C15.316379,55.117062 13.493430,58.182301 15.600875,63.141663 
	C15.844189,63.714249 15.872178,64.378334 16.000000,65.000000 
z"/>
<path fill="#000000" opacity="1.000000" stroke="none" 
	d="
M49.471199,65.000000 
	C49.020298,64.500572 48.865448,63.665745 49.086319,63.550407 
	C55.953716,59.964245 55.715645,54.182182 54.425667,47.465981 
	C58.231705,46.005646 61.615852,45.002823 65.000000,44.000000 
	C65.000000,50.915157 65.000000,57.830311 65.000000,65.000000 
	C59.983635,65.000000 54.963017,65.000000 49.471199,65.000000 
z"/>
<path fill="#A1CBFE" opacity="1.000000" stroke="none" 
	d="
M23.919847,51.093807 
	C19.510580,51.062199 15.038666,51.469475 10.713024,50.852020 
	C7.581218,50.404972 4.643448,48.598591 1.309575,47.699196 
	C1.000000,44.638714 1.000000,41.277424 1.000000,37.458069 
	C2.753908,36.340992 4.507816,35.681988 6.633971,35.510506 
	C7.025170,43.949467 9.055328,45.864128 16.938234,46.039646 
	C23.314743,46.181625 29.683390,46.676785 35.877972,47.320450 
	C34.851784,47.941708 33.833759,48.729816 33.182438,48.496078 
	C29.404486,47.140301 26.481316,48.360104 23.919847,51.093807 
z"/>
<path fill="#82B9FD" opacity="1.000000" stroke="none" 
	d="
M65.000000,43.541931 
	C61.615852,45.002823 58.231705,46.005646 54.442745,47.049011 
	C52.592628,46.416992 51.147327,45.744427 49.078491,44.717361 
	C44.990723,44.298515 41.526485,44.234161 37.632881,44.110683 
	C34.524708,43.703644 31.845901,43.355736 29.100515,42.681137 
	C29.695724,41.620434 30.357515,40.886421 31.341818,40.409294 
	C37.405510,40.777340 43.181557,40.532715 48.878918,41.091034 
	C55.773281,41.766655 60.740524,39.835751 63.099224,32.952969 
	C63.565041,33.164608 64.030861,33.376247 64.748337,33.293945 
	C65.000000,36.361286 65.000000,39.722576 65.000000,43.541931 
z"/>
<path fill="#DAE9FF" opacity="1.000000" stroke="none" 
	d="
M38.062248,44.169811 
	C41.526485,44.234161 44.990723,44.298515 48.733150,44.666080 
	C45.568878,47.056396 42.130806,50.844162 38.682980,50.853065 
	C32.724422,50.868454 28.825861,52.295292 26.520367,57.791916 
	C26.401039,58.076405 25.271696,58.011303 24.617479,57.985405 
	C20.250204,57.812527 18.614349,60.048161 19.043039,64.590179 
	C18.250000,65.000000 17.500000,65.000000 16.375000,65.000000 
	C15.872178,64.378334 15.844189,63.714249 15.600875,63.141663 
	C13.493430,58.182301 15.316379,55.117062 20.670204,55.053020 
	C22.973570,55.025471 24.571980,54.806904 23.956409,51.522728 
	C26.481316,48.360104 29.404486,47.140301 33.182438,48.496078 
	C33.833759,48.729816 34.851784,47.941708 36.146538,47.173065 
	C37.082516,45.870285 37.572380,45.020050 38.062248,44.169811 
z"/>
<path fill="#FDC202" opacity="1.000000" stroke="none" 
	d="
M31.019306,40.152409 
	C30.357515,40.886421 29.695724,41.620434 28.888897,43.016361 
	C25.843224,44.324413 23.463243,44.548290 22.580873,40.534447 
	C22.321375,39.354004 19.584852,38.718094 17.818161,37.503960 
	C17.549948,35.908226 17.222176,34.612232 17.380781,33.378777 
	C18.413832,25.344887 23.738638,20.401978 29.995235,16.165007 
	C36.362270,13.321342 46.056881,17.267521 50.046501,24.329920 
	C50.989388,25.999014 51.921921,27.673960 52.855156,29.993225 
	C51.008205,31.672392 48.693008,33.978470 47.409241,33.502514 
	C43.231770,31.953735 41.925316,34.590244 39.972939,37.041950 
	C38.970741,38.300468 37.424603,39.379776 35.905128,39.900135 
	C34.421692,40.408142 32.659260,40.101452 31.019306,40.152409 
z"/>
<path fill="#A0CAFE" opacity="1.000000" stroke="none" 
	d="
M31.341816,40.409294 
	C32.659260,40.101452 34.421692,40.408142 35.905128,39.900135 
	C37.424603,39.379776 38.970741,38.300468 39.972939,37.041950 
	C41.925316,34.590244 43.231770,31.953735 47.409241,33.502514 
	C48.693008,33.978470 51.008205,31.672392 53.008835,30.319820 
	C56.450092,30.430872 60.263794,28.606331 62.944534,32.606964 
	C60.740524,39.835751 55.773281,41.766655 48.878918,41.091034 
	C43.181557,40.532715 37.405510,40.777340 31.341816,40.409294 
z"/>
<path fill="#C0DBFF" opacity="1.000000" stroke="none" 
	d="
M17.983547,37.832623 
	C19.584852,38.718094 22.321375,39.354004 22.580873,40.534447 
	C23.463243,44.548290 25.843224,44.324413 28.955477,43.343052 
	C31.845901,43.355736 34.524708,43.703644 37.632881,44.110683 
	C37.572380,45.020050 37.082516,45.870285 36.324089,46.867901 
	C29.683390,46.676785 23.314743,46.181625 16.938234,46.039646 
	C9.055328,45.864128 7.025170,43.949467 7.009643,35.582520 
	C8.351977,35.111336 9.690886,35.055664 11.590616,35.318146 
	C13.855288,37.006191 14.586276,40.959419 17.983547,37.832623 
z"/>
<path fill="#F1A909" opacity="1.000000" stroke="none" 
	d="
M17.818161,37.503960 
	C14.586276,40.959419 13.855288,37.006191 11.993638,35.318611 
	C13.343929,27.678261 15.903060,20.964561 23.155254,17.425781 
	C24.963778,16.543295 27.165792,16.467213 29.591093,16.092747 
	C23.738638,20.401978 18.413832,25.344887 17.380781,33.378777 
	C17.222176,34.612232 17.549948,35.908226 17.818161,37.503960 
z"/>
</svg>